<svg width="81" height="82" viewBox="0 0 81 82" fill="none" xmlns="http://www.w3.org/2000/svg">
<g clip-path="url(#clip0_16_18)">
<path d="M55.5591 6.86791L59.8974 19.1703C60.7006 21.448 62.2644 23.3791 64.3253 24.6383L75.4569 31.4396C81.1528 34.9197 81.578 43.0342 76.2771 47.0907L65.9175 55.0183C63.9995 56.486 62.6461 58.57 62.0854 60.9192L59.0568 73.6077C57.5071 80.1002 49.9212 83.0121 44.4252 79.2242L33.6843 71.8213C31.6957 70.4508 29.2955 69.8076 26.888 70.0003L13.8847 71.0409C7.23106 71.5734 2.11744 65.2586 4.02164 58.861L7.74306 46.3582C8.43204 44.0434 8.30199 41.5619 7.37483 39.3318L2.36689 27.2865C-0.195603 21.1231 4.22993 14.3083 10.9028 14.1424L23.9437 13.8181C26.358 13.758 28.6779 12.8675 30.5123 11.2966L40.4206 2.81155C45.4905 -1.53013 53.3393 0.572939 55.5591 6.86791Z" fill="#D9D9D9" stroke="#D9D9D9"/>
<circle cx="38.2373" cy="41.2373" r="10" fill="#282A36"/>
</g>
<defs>
<clipPath id="clip0_16_18">
<rect width="81" height="82" fill="white"/>
</clipPath>
</defs>
</svg>
